<?xml version="1.0" encoding="utf-8"?>
<!-- Generator: Adobe Illustrator 24.0.3, SVG Export Plug-In . SVG Version: 6.00 Build 0)  -->
<svg version="1.1" id="Layer_1" xmlns="http://www.w3.org/2000/svg" xmlns:xlink="http://www.w3.org/1999/xlink" x="0px" y="0px"
	 viewBox="0 0 30 30" style="enable-background:new 0 0 30 30;" xml:space="preserve">
<style type="text/css">
	.st0{fill:#111111;}
</style>
<path class="st0" d="M15,30C6.7,30,0,23.3,0,15C0,6.7,6.7,0,15,0c8.6,0,13.5,6.1,14.7,12.2c1.2,6.1-1.2,13.7-9.2,16.8l-0.1,0
	C18.7,29.7,16.9,30,15,30C15,30,15,30,15,30z M7.3,24.7c2.2,1.7,4.9,2.7,7.7,2.7c1.2,0,2.5-0.2,3.7-0.6c-0.1-3.4-0.8-6.7-2-9.9
	C11.7,18.6,8.6,22.7,7.3,24.7z M19.3,16.4c1.1,3,1.7,6.1,1.9,9.4c3-1.8,5.2-4.8,5.9-8.2C25,16.7,23,16.3,21,16.3
	C20.4,16.3,19.9,16.3,19.3,16.4z M2.6,14.6c-0.1,3,0.9,5.9,2.8,8.3c1.5-2.2,4.9-6.5,10.3-8.3c-0.3-0.7-0.6-1.3-1-1.9
	C11.1,13.9,7.1,14.5,2.6,14.6z M21.1,13.7c2,0,4.2,0.4,6.3,1.1c0-2.8-1-5.4-2.7-7.6c-1.2,1.1-3.6,3-7.4,4.5c0.3,0.6,0.7,1.4,1,2.1
	C19.2,13.7,20.2,13.7,21.1,13.7z M8.4,4.5C5.7,6.3,3.7,8.9,3,12c3.8-0.1,7.2-0.7,10.4-1.6C11.4,7.5,9.5,5.6,8.4,4.5z M10.9,3.3
	c1.4,1.3,3.3,3.4,5,6.2c3.5-1.4,5.7-3.1,6.9-4.1c-2.2-1.8-5-2.8-7.8-2.8C13.6,2.6,12.2,2.8,10.9,3.3z"/>
</svg>