<?xml version="1.0" encoding="utf-8"?>
<!-- Generator: Adobe Illustrator 24.0.3, SVG Export Plug-In . SVG Version: 6.00 Build 0)  -->
<svg version="1.1" id="Layer_1" xmlns="http://www.w3.org/2000/svg" xmlns:xlink="http://www.w3.org/1999/xlink" x="0px" y="0px"
	 viewBox="0 0 30 30" style="enable-background:new 0 0 30 30;" xml:space="preserve">
<style type="text/css">
	.st0{fill:#111111;}
</style>
<path class="st0" d="M15,30C6.7,30,0,23.3,0,15S6.7,0,15,0c8.6,0,15,6,15,14.1c0,5.5-3.5,8.6-9.7,8.6c-1,0-1.9-0.3-2.4-0.9
	c-0.3-0.3-0.5-0.6-0.6-1c-1.1,1.2-2.8,2.2-4.8,2.2c-3.5,0-5.7-2.4-5.7-6.2c0-4.6,3.1-9.6,8.2-9.6c1.7,0,3.2,0.6,4.1,1.8
	c0,0,0.1-0.4,0.1-0.4c0.1-0.5,0.6-0.9,1.1-0.9h0.7c0.3,0,0.6,0.1,0.8,0.4C22,8.2,22.1,8.5,22,8.8l-1.9,9.7c-0.1,0.7-0.1,1.1,0.1,1.3
	c0.1,0.1,0.3,0.2,0.7,0.2c3.1,0,6.4-1.6,6.4-6c0-6.6-5.2-11.4-12.3-11.4C8.2,2.7,2.7,8.2,2.7,15S8.2,27.3,15,27.3
	c2.6,0,5.2-0.8,7.3-2.4c0.2-0.1,0.4-0.2,0.6-0.2c0.3,0,0.6,0.1,0.9,0.4l0.3,0.4c0.2,0.2,0.3,0.5,0.2,0.8c0,0.3-0.2,0.6-0.4,0.7
	C21.3,29,18.2,30,15,30z M15,9.8c-2.6,0-5.3,2.6-5.3,6.8c0,2.3,1.1,3.6,3.1,3.6c3.2,0,5.3-3.5,5.3-6.9C18.1,12.3,17.8,9.8,15,9.8z"
	/>
</svg>
