<?xml version="1.0" encoding="utf-8"?>
<!-- Generator: Adobe Illustrator 24.0.1, SVG Export Plug-In . SVG Version: 6.00 Build 0)  -->
<svg version="1.1" id="Layer_1" xmlns="http://www.w3.org/2000/svg" xmlns:xlink="http://www.w3.org/1999/xlink" x="0px" y="0px"
	 viewBox="0 0 240 48" style="enable-background:new 0 0 240 48;" xml:space="preserve">
<style type="text/css">
	.st0{fill:none;}
</style>
<polygon class="st0" points="826,-166.6 831.2,-166.6 831.2,-166.6 "/>
<g>
	<path d="M13.5,8.4v26.3L11,36.2c-0.3,0.1-0.6,0.3-0.9,0.4V5.5l-3.4,2v29c-0.2-0.1-0.3-0.1-0.5-0.2c-1.7-0.8-2.8-2.5-2.8-4.5V9.5
		c-2,1.5-3.4,4-3.4,6.7v15.6c0,4.7,3.8,8.4,8.4,8.4c1.5,0,3-0.4,4.2-1.1l9.1-5.3l1.7,2.9l-11.7,6.7l3.4,1.9l25.2-14.6
		c0,0.2,0.1,0.4,0.1,0.6c0.1,1.9-0.8,3.7-2.5,4.7L18.6,47.3c2.4,1,5.1,0.9,7.5-0.5L39.6,39c4-2.3,5.4-7.5,3.1-11.5
		c-0.8-1.3-1.9-2.3-3.1-3L16.9,11.4v-3c0-0.3,0-0.6,0.1-0.8L43.8,23v-3.9L18.6,4.6c0.2-0.2,0.3-0.3,0.5-0.4C20.7,3.1,22.7,3,24.5,4
		l19.3,11.1c-0.3-2.5-1.8-4.9-4.2-6.3L26.1,1.1c-4-2.3-9.2-0.9-11.5,3.1C13.8,5.5,13.5,7,13.5,8.4z M35.4,25.8l2.5,1.5
		c0.3,0.2,0.5,0.3,0.7,0.5l-6.4,3.7l-1.7-2.9L35.4,25.8z M32,24l-6.1,3.5l3.4,5.9L26.4,35L23,29.2l-6.1,3.6V15.3L32,24z"/>
</g>
<g>
	<path d="M64.4,18.3c0.9-0.5,1.8-0.8,2.8-0.8c1.2,0,2.3,0.3,3.2,0.9c0.9,0.6,1.5,1.4,1.7,2.5h4.4c-0.5-2.2-1.5-3.9-3.2-5.1
		c-1.6-1.3-3.7-1.9-6.1-1.9c-1.9,0-3.6,0.4-5.2,1.3c-1.5,0.9-2.7,2.1-3.6,3.6s-1.3,3.3-1.3,5.4c0,2,0.4,3.8,1.3,5.4s2,2.7,3.6,3.6
		c1.5,0.9,3.2,1.3,5.2,1.3c2.4,0,4.5-0.6,6.1-1.9c1.7-1.3,2.7-3,3.2-5.1h-4.4c-0.3,1.1-0.8,2-1.7,2.6c-0.9,0.6-1.9,0.9-3.2,0.9
		c-1,0-2-0.3-2.8-0.8c-0.9-0.5-1.6-1.3-2.1-2.3c-0.5-1-0.8-2.2-0.8-3.7c0-1.4,0.3-2.7,0.8-3.7C62.8,19.6,63.5,18.8,64.4,18.3z"/>
	<rect x="80.3" y="5.6" width="4.2" height="28.4"/>
	<path d="M91.3,5.6c-0.8,0-1.4,0.2-2,0.7c-0.5,0.5-0.8,1.1-0.8,1.8c0,0.7,0.3,1.3,0.8,1.8c0.5,0.5,1.2,0.7,2,0.7
		c0.8,0,1.4-0.2,2-0.7c0.5-0.5,0.8-1.1,0.8-1.8c0-0.7-0.3-1.3-0.8-1.8C92.8,5.8,92.1,5.6,91.3,5.6z"/>
	<rect x="89.2" y="14.4" width="4.2" height="19.6"/>
	<path d="M104.6,18.3c0.9-0.5,1.8-0.8,2.8-0.8c1.2,0,2.3,0.3,3.2,0.9c0.9,0.6,1.5,1.4,1.7,2.5h4.4c-0.5-2.2-1.5-3.9-3.2-5.1
		c-1.6-1.3-3.7-1.9-6.1-1.9c-1.9,0-3.6,0.4-5.2,1.3s-2.7,2.1-3.6,3.6c-0.9,1.5-1.3,3.3-1.3,5.4c0,2,0.4,3.8,1.3,5.4
		c0.9,1.5,2,2.7,3.6,3.6s3.2,1.3,5.2,1.3c2.4,0,4.5-0.6,6.1-1.9c1.7-1.3,2.7-3,3.2-5.1h-4.4c-0.3,1.1-0.8,2-1.7,2.6
		c-0.9,0.6-1.9,0.9-3.2,0.9c-1,0-2-0.3-2.8-0.8c-0.9-0.5-1.6-1.3-2.1-2.3s-0.8-2.2-0.8-3.7c0-1.4,0.3-2.7,0.8-3.7
		S103.7,18.8,104.6,18.3z"/>
	<polygon points="137.2,14.4 132.2,14.4 124.7,22.5 124.7,5.6 120.5,5.6 120.5,34 124.7,34 124.7,24 133.1,34 138.4,34 128.8,23.3 	
		"/>
	<rect x="165.6" y="14.4" width="4.2" height="19.6"/>
	<path d="M167.7,5.6c-0.8,0-1.4,0.2-2,0.7c-0.5,0.5-0.8,1.1-0.8,1.8c0,0.7,0.3,1.3,0.8,1.8c0.5,0.5,1.2,0.7,2,0.7
		c0.8,0,1.4-0.2,2-0.7c0.5-0.5,0.8-1.1,0.8-1.8c0-0.7-0.3-1.3-0.8-1.8C169.1,5.8,168.5,5.6,167.7,5.6z"/>
	<polygon points="182.5,30 177.1,14.4 172.7,14.4 180,34 185,34 192.3,14.4 188,14.4 	"/>
	<path d="M208.2,15.3c-1.5-0.9-3.2-1.3-5-1.3c-1.8,0-3.5,0.4-5,1.3c-1.5,0.9-2.7,2.1-3.6,3.6s-1.3,3.3-1.3,5.4
		c0,2.1,0.4,3.9,1.3,5.4c0.9,1.5,2,2.7,3.5,3.6c1.5,0.9,3.2,1.3,5,1.3c1.9,0,3.6-0.4,5.1-1.3c1.5-0.9,2.7-2.1,3.6-3.6
		c0.9-1.5,1.3-3.3,1.3-5.4c0-2.1-0.4-3.9-1.3-5.4C210.9,17.3,209.7,16.1,208.2,15.3z M208,27.9c-0.5,1-1.2,1.7-2.1,2.2
		c-0.9,0.5-1.8,0.8-2.8,0.8c-1,0-1.9-0.2-2.8-0.8c-0.8-0.5-1.5-1.2-2.1-2.2s-0.8-2.2-0.8-3.7c0-1.5,0.3-2.7,0.8-3.7s1.2-1.7,2.1-2.2
		c0.9-0.5,1.8-0.8,2.8-0.8c1,0,1.9,0.3,2.8,0.8c0.9,0.5,1.5,1.2,2.1,2.2s0.8,2.2,0.8,3.7C208.8,25.7,208.5,26.9,208,27.9z"/>
	<path d="M227.7,18v-3.5h-5.5v-5h-3.7l-0.5,5h-3.4V18h3.4v9.7c0,2.4,0.6,4.1,1.7,5c1.1,0.9,2.7,1.4,4.6,1.4h3.2v-3.6h-2.3
		c-1.1,0-1.9-0.2-2.4-0.6c-0.5-0.4-0.7-1.2-0.7-2.2V18H227.7z"/>
	<path d="M156.9,15.3c-1.4-0.9-3.1-1.3-5-1.3c-1.7,0-3.2,0.4-4.3,1.1c-1.1,0.7-2,1.5-2.6,2.4l-0.4-3h-3.8v28h4.2V31
		c0.7,1.1,1.6,2,2.8,2.6c1.2,0.6,2.5,0.9,4,0.9c1.9,0,3.6-0.4,5.1-1.3c1.4-0.9,2.6-2.1,3.4-3.6c0.8-1.5,1.2-3.3,1.2-5.3
		s-0.4-3.7-1.2-5.3C159.5,17.4,158.4,16.2,156.9,15.3z M155.6,29c-1.2,1.2-2.6,1.8-4.4,1.8c-1.8,0-3.3-0.6-4.4-1.8
		c-1.1-1.2-1.7-2.8-1.7-4.8c0-1.9,0.6-3.5,1.7-4.8c1.1-1.2,2.6-1.9,4.4-1.9c1.2,0,2.3,0.3,3.2,0.8c0.9,0.6,1.6,1.3,2.2,2.3
		s0.8,2.1,0.8,3.4C157.3,26.2,156.7,27.8,155.6,29z"/>
</g>
</svg>
